<svg xmlns="http://www.w3.org/2000/svg"
     width="200" height="200"
     viewBox="0 0 200 200">
    <g fill="#4F0E09">
        <path d="M100,10 C55.8,10 20,45.8 20,90 C20,134.2 55.8,170 100,170 C144.2,170 180,134.2 180,90 C180,45.8 144.2,10 100,10 Z M100,150 C70.7,150 50,129.3 50,100 C50,70.7 70.7,50 100,50 C129.3,50 150,70.7 150,100 C150,129.3 129.3,150 100,150 Z"/>
    </g>

    <!-- Texto "HACCP" centrado -->
    <text x="100" y="115"
          text-anchor="middle"
          font-family="Arial, Helvetica, sans-serif"
          font-size="40"
          font-weight="bold"
          fill="#C62828">
        HACCP
    </text>

    <!-- Línea horizontal debajo del texto para resaltar -->
    <line x1="60" y1="125" x2="140" y2="125"
          stroke="#C62828" stroke-width="4" />
</svg>
