<svg version="1.0" xmlns="http://www.w3.org/2000/svg"
 width="1437.000000pt" height="400.000000pt" viewBox="0 0 1437.000000 400.000000"
 preserveAspectRatio="xMidYMid meet">

<g transform="translate(0.000000,400.000000) scale(0.100000,-0.100000)"
fill="#155439" stroke="none">
<path d="M3840 3846 c-211 -140 -397 -262 -405 -265 -24 -10 -319 -225 -425
-310 -448 -358 -690 -654 -918 -1121 -80 -165 -142 -298 -142 -305 0 -3 -12
-30 -26 -62 -37 -81 -48 -106 -99 -229 -25 -60 -49 -112 -54 -117 -4 -4 -48
25 -97 66 -304 250 -517 391 -653 431 -112 33 -142 -14 -88 -134 43 -96 233
-312 402 -456 150 -129 538 -404 570 -404 14 0 53 66 123 205 43 86 112 234
112 240 0 3 11 29 25 59 14 30 25 57 25 60 0 4 8 25 19 49 10 23 26 62 36 87
9 25 21 54 25 65 5 11 20 52 35 90 39 100 44 112 55 138 5 12 23 57 39 99 57
144 220 485 265 551 14 21 26 40 26 43 0 4 34 56 75 118 239 358 575 697 1035
1044 105 80 108 82 90 81 -8 0 -31 -11 -50 -23z"/>
<path d="M1420 3585 c-192 -21 -307 -53 -467 -131 -279 -135 -493 -331 -670
-614 -33 -52 -66 -111 -75 -130 -59 -129 -93 -215 -110 -280 -26 -98 -40 -173
-47 -250 -5 -46 -14 -86 -20 -88 -18 -6 -15 -292 4 -328 8 -16 15 -48 15 -72
0 -42 19 -144 42 -227 54 -197 117 -336 225 -499 71 -106 244 -293 327 -354
28 -20 53 -39 56 -43 18 -22 188 -117 290 -162 44 -20 170 -61 230 -76 232
-56 500 -56 745 0 64 15 195 57 217 69 10 6 23 10 29 10 26 0 290 141 358 191
l21 16 -19 44 c-10 24 -34 78 -54 119 -19 41 -47 102 -62 135 -54 119 -59 130
-62 134 -1 2 -29 -16 -60 -41 -230 -180 -450 -263 -698 -263 -201 0 -372 52
-560 168 -134 82 -300 249 -389 391 -75 117 -133 256 -172 411 -26 100 -26
381 -1 480 10 39 22 79 27 90 4 11 18 45 30 75 110 275 338 536 567 649 207
102 501 126 763 61 160 -39 369 -106 386 -123 4 -4 13 -7 20 -7 12 0 234 341
234 359 0 5 -27 23 -61 41 -34 17 -76 40 -94 50 -43 24 -283 120 -301 120 -8
0 -22 4 -32 9 -17 10 -104 31 -202 50 -54 11 -272 32 -301 30 -7 -1 -66 -7
-129 -14z"/>
<path d="M6528 2625 c-137 -38 -280 -135 -385 -261 -111 -133 -132 -301 -48
-389 54 -58 87 -48 164 50 64 81 109 104 159 81 17 -9 41 -30 53 -48 18 -29
20 -45 16 -138 -8 -182 -83 -359 -298 -698 -71 -112 -136 -216 -144 -232 -23
-45 -19 -87 11 -115 l26 -24 368 -3 c412 -3 392 0 427 -77 56 -122 126 -85
214 114 32 71 59 237 59 364 0 150 -37 238 -91 216 -8 -3 -30 -27 -49 -52 -77
-102 -131 -135 -195 -119 -29 7 -65 59 -65 93 0 32 16 65 98 197 84 134 105
171 138 236 98 195 107 455 22 610 -86 155 -302 243 -480 195z m57 -65 c-3 -5
-12 -10 -20 -10 -18 0 -159 -74 -205 -107 -66 -48 -176 -168 -199 -216 -35
-72 -39 -131 -12 -167 23 -32 28 -60 10 -60 -6 0 -27 16 -46 35 -34 34 -35 38
-31 93 2 33 14 77 28 106 48 96 200 235 305 281 22 9 48 21 57 26 10 5 27 9
37 9 11 0 23 5 26 10 3 6 17 10 31 10 14 0 22 -4 19 -10z m-84 -400 c59 -48
82 -109 81 -215 0 -99 -12 -155 -65 -293 -38 -96 -130 -285 -172 -352 -14 -22
-25 -42 -25 -45 0 -3 -43 -73 -95 -156 -52 -82 -95 -156 -95 -164 0 -19 -46
-20 -53 -2 -3 7 37 78 87 158 302 472 410 772 349 966 -16 52 -62 113 -84 113
-5 0 -7 5 -4 10 11 18 40 11 76 -20z m587 -783 c5 -25 -78 -124 -124 -147 -64
-32 -73 -24 -24 23 25 24 63 67 85 95 40 51 57 59 63 29z m-188 -481 c62 -43
90 -126 42 -126 -14 0 -24 14 -37 45 -9 25 -30 55 -46 67 -27 21 -30 38 -6 38
7 0 28 -11 47 -24z"/>
<path d="M7718 2625 c-125 -34 -277 -130 -368 -233 -135 -152 -160 -348 -54
-431 40 -31 71 -27 107 16 75 86 124 132 150 138 34 9 87 -21 106 -59 33 -68
24 -197 -22 -336 -36 -106 -155 -333 -269 -511 -59 -92 -116 -184 -127 -205
-27 -49 -27 -94 0 -128 l20 -26 355 0 c409 0 412 -1 445 -74 39 -90 72 -97
134 -33 27 29 52 71 73 123 50 125 62 198 62 365 0 130 -3 155 -20 189 -11 21
-24 41 -30 45 -20 13 -49 -7 -92 -62 -83 -109 -157 -139 -215 -89 -24 21 -28
32 -28 74 0 61 10 82 115 236 17 24 30 47 30 50 0 3 16 30 35 60 19 30 35 57
35 60 0 3 11 29 24 58 29 62 50 136 67 236 25 150 -24 324 -120 422 -107 108
-272 154 -413 115z m57 -65 c-3 -5 -17 -10 -31 -10 -13 0 -24 -4 -24 -9 0 -5
-13 -12 -30 -16 -16 -4 -30 -11 -30 -16 0 -5 -7 -9 -15 -9 -17 0 -110 -64
-168 -116 -44 -41 -113 -123 -134 -161 -23 -40 -27 -127 -9 -163 16 -34 21
-60 10 -60 -3 0 -19 9 -34 20 -96 68 -35 245 132 387 77 65 82 68 158 108 64
33 70 35 94 35 14 0 28 5 31 10 3 6 17 10 31 10 14 0 22 -4 19 -10z m-94 -391
c16 -11 41 -41 56 -67 26 -44 28 -55 28 -157 0 -65 -6 -128 -14 -155 -25 -83
-44 -135 -53 -144 -4 -6 -8 -16 -8 -23 0 -37 -161 -339 -290 -543 -39 -63 -76
-124 -81 -137 -9 -25 -59 -34 -59 -10 0 7 51 95 114 195 122 195 202 343 261
487 63 150 77 209 77 320 0 114 -20 174 -72 219 -17 13 -30 27 -30 30 0 14 44
4 71 -15z m597 -791 c5 -26 -103 -145 -144 -158 -51 -17 -53 -6 -6 35 22 20
59 61 83 91 41 53 61 63 67 32z m-173 -501 c45 -43 59 -87 34 -102 -13 -9 -49
23 -49 44 0 18 -45 71 -60 71 -6 0 -10 7 -10 15 0 28 40 15 85 -28z"/>
<path d="M8860 2604 c-62 -12 -147 -60 -197 -112 -34 -34 -97 -131 -121 -183
-121 -265 -144 -633 -64 -984 14 -61 65 -185 106 -259 104 -187 280 -291 432
-257 157 36 273 137 359 316 40 84 46 98 65 155 55 172 69 505 30 700 -57 279
-204 517 -369 595 -43 21 -74 28 -136 30 -44 2 -91 1 -105 -1z m-6 -83 c3 -5
-13 -19 -37 -31 -133 -69 -231 -261 -276 -541 -14 -86 -14 -362 0 -448 31
-191 94 -356 179 -466 38 -49 105 -104 143 -118 23 -9 22 -27 -2 -27 -30 0
-95 39 -145 87 -107 102 -189 281 -227 493 -18 99 -18 421 0 515 39 202 96
337 184 436 65 73 164 128 181 100z m193 -323 c97 -146 167 -666 117 -867 -20
-78 -41 -118 -77 -145 -42 -31 -55 -8 -23 39 51 74 69 206 56 396 -9 116 -14
159 -39 300 -21 122 -54 223 -87 266 -30 40 -30 53 1 53 17 0 32 -12 52 -42z
m-64 -60 c56 -76 92 -262 102 -533 10 -251 -12 -346 -83 -353 -36 -4 -52 16
-75 88 -67 215 -105 577 -76 723 21 103 85 139 132 75z"/>
<path d="M10032 2601 c-274 -70 -445 -486 -410 -996 29 -421 200 -727 442
-790 71 -19 91 -19 162 0 156 40 279 168 372 385 51 119 82 308 82 497 0 157
-16 272 -57 408 -63 214 -196 401 -335 471 -39 20 -69 26 -137 29 -47 3 -101
0 -119 -4z m13 -86 c0 -5 -11 -11 -23 -13 -41 -6 -155 -129 -192 -207 -71
-149 -92 -231 -111 -437 -22 -235 11 -468 93 -662 52 -122 160 -254 229 -278
36 -12 38 -28 4 -28 -38 0 -125 60 -177 121 -113 135 -177 312 -204 564 -20
194 -4 383 49 570 31 112 116 257 183 315 64 54 149 86 149 55z m179 -306 c35
-42 49 -76 79 -200 81 -336 87 -622 16 -765 -27 -55 -70 -87 -90 -67 -10 10
-7 18 14 38 48 49 62 120 62 315 -1 173 -8 245 -46 428 -25 119 -51 195 -83
237 -14 18 -22 35 -19 39 15 14 43 4 67 -25z m-57 -65 c41 -48 75 -189 98
-414 24 -236 15 -388 -29 -455 -20 -30 -65 -34 -89 -7 -29 32 -62 157 -98 377
-14 85 -19 402 -7 446 22 75 83 101 125 53z"/>
<path d="M11210 2597 c-120 -34 -221 -132 -294 -284 -18 -38 -38 -88 -45 -113
-7 -25 -18 -58 -23 -75 -27 -87 -38 -207 -38 -399 0 -229 11 -304 68 -491 18
-57 75 -170 118 -230 82 -116 158 -170 273 -195 139 -29 299 46 405 190 41 55
116 198 116 220 0 6 4 18 9 28 11 20 35 112 51 194 15 77 16 417 1 493 -65
325 -201 554 -379 641 -65 32 -190 42 -262 21z m20 -77 c0 -5 -16 -17 -35 -26
-35 -16 -145 -120 -145 -136 0 -5 -10 -25 -23 -46 -40 -64 -82 -186 -109 -322
-17 -88 -17 -421 1 -520 46 -260 169 -484 297 -545 37 -17 45 -35 16 -35 -76
0 -213 139 -280 283 -81 173 -105 303 -105 557 1 200 14 300 58 435 45 140
134 268 229 331 49 32 96 44 96 24z m182 -312 c46 -63 71 -139 101 -308 31
-169 37 -231 37 -374 0 -198 -25 -289 -93 -339 -21 -16 -30 -18 -39 -9 -9 9
-7 17 8 34 94 107 96 395 5 813 -12 59 -49 150 -71 178 -26 32 -25 37 4 37 17
0 33 -11 48 -32z m-65 -60 c61 -67 101 -274 110 -568 6 -207 0 -256 -38 -304
-26 -33 -71 -35 -91 -3 -38 62 -72 217 -104 472 -17 135 -15 279 5 346 22 74
78 100 118 57z"/>
<path d="M3195 2571 c-17 -10 -38 -29 -47 -43 -29 -44 -48 -141 -48 -243 0
-99 -6 -146 -42 -335 -30 -158 -36 -188 -59 -275 -11 -44 -24 -96 -29 -115 -5
-19 -16 -64 -25 -100 -9 -36 -20 -81 -25 -100 -24 -99 -65 -238 -78 -264 -8
-16 -34 -51 -59 -77 -50 -54 -63 -102 -44 -162 32 -97 271 -116 355 -28 26 27
29 38 29 92 0 59 -1 62 -38 94 -37 31 -39 35 -38 88 3 106 32 121 207 108 126
-10 150 -25 154 -100 3 -48 0 -56 -32 -92 -33 -36 -36 -44 -36 -102 1 -108 41
-134 225 -144 219 -11 325 45 325 174 0 44 -4 53 -41 88 -43 41 -66 84 -80
145 -4 19 -15 64 -24 100 -9 36 -20 81 -24 100 -5 19 -21 80 -36 135 -15 55
-31 116 -35 135 -5 19 -21 78 -35 130 -15 52 -30 111 -35 130 -4 19 -15 61
-24 93 -9 31 -22 81 -30 110 -22 80 -64 205 -94 277 -71 174 -150 234 -237
181z m45 -52 c0 -7 -8 -19 -18 -28 -33 -30 -44 -76 -53 -211 -11 -173 -28
-303 -59 -435 -6 -27 -15 -68 -20 -90 -5 -22 -19 -78 -31 -125 -11 -47 -23
-96 -26 -110 -3 -14 -19 -77 -35 -140 -17 -63 -33 -131 -38 -150 -9 -45 -48
-157 -65 -190 -7 -14 -32 -44 -54 -68 -41 -42 -55 -92 -31 -107 14 -9 12 -25
-3 -25 -23 0 -48 36 -49 69 -1 24 8 40 39 69 48 44 67 79 93 170 11 37 24 81
29 97 5 17 30 113 55 215 25 102 50 205 56 230 12 47 16 67 48 220 32 157 42
224 42 291 0 94 19 227 37 262 25 49 83 88 83 56z m63 -593 c15 -22 56 -144
77 -226 4 -19 13 -54 19 -76 21 -80 8 -147 -31 -160 -26 -8 -35 3 -20 26 14
23 16 111 3 154 -6 17 -22 76 -38 130 -15 55 -37 114 -49 132 -12 18 -20 35
-16 38 13 13 41 4 55 -18z m-51 -68 c25 -39 88 -258 88 -304 0 -17 -8 -27 -26
-34 -38 -15 -147 -12 -169 4 -17 12 -17 19 -6 92 13 81 22 120 48 212 17 58
40 69 65 30z m105 -594 c-3 -3 -12 -4 -19 -1 -8 3 -5 6 6 6 11 1 17 -2 13 -5z
m68 -24 c38 -24 65 -82 65 -140 0 -51 -11 -77 -54 -129 -20 -23 -36 -49 -36
-56 0 -7 11 -28 25 -48 27 -41 18 -56 -20 -31 -51 34 -61 96 -21 133 14 13 32
38 40 56 31 66 11 181 -35 206 -21 11 -26 29 -8 29 7 0 26 -9 44 -20z"/>
<path d="M5355 2574 c-127 -32 -238 -143 -331 -330 -44 -91 -53 -112 -79 -210
-56 -206 -58 -491 -4 -714 21 -86 71 -216 106 -272 13 -21 23 -40 23 -43 0
-14 83 -116 121 -149 72 -61 133 -86 212 -86 81 0 111 12 218 86 42 30 88 58
102 63 28 11 55 58 76 131 8 25 17 58 22 74 15 49 11 203 -6 236 -9 17 -21 30
-28 30 -6 0 -28 -23 -47 -51 -86 -126 -227 -158 -318 -71 -48 45 -83 107 -115
204 -35 103 -45 155 -58 305 -21 241 23 410 117 449 27 12 38 11 78 -2 62 -21
106 -73 145 -174 93 -238 106 -260 149 -260 50 1 78 36 107 133 40 135 -6 459
-76 529 -24 25 -30 27 -59 17 -37 -13 -61 -5 -124 44 -22 18 -51 38 -64 45
-25 14 -134 24 -167 16z m2 -60 c-3 -3 -12 -4 -19 -1 -8 3 -5 6 6 6 11 1 17
-2 13 -5z m-37 -24 c0 -5 -5 -10 -11 -10 -22 0 -99 -72 -143 -133 -91 -128
-140 -249 -178 -437 -17 -85 -16 -373 1 -465 13 -67 57 -223 72 -255 38 -80
68 -133 99 -175 60 -80 124 -140 156 -147 29 -5 29 -28 0 -28 -14 0 -26 3 -26
8 0 4 -13 13 -28 19 -15 7 -47 32 -71 54 -46 45 -151 198 -151 221 0 8 -4 18
-9 23 -25 27 -74 201 -91 320 -13 91 -13 312 0 395 25 161 70 288 146 415 43
70 131 165 175 190 29 16 59 18 59 5z m420 -70 c0 -5 -4 -10 -10 -10 -5 0 -10
5 -10 10 0 6 5 10 10 10 6 0 10 -4 10 -10z m-192 -166 c52 -44 82 -94 122
-204 17 -47 35 -93 41 -102 5 -10 9 -24 9 -32 0 -7 7 -19 15 -26 20 -17 19
-40 -2 -40 -22 0 -53 47 -77 115 -10 28 -21 59 -26 70 -4 11 -16 42 -27 68
-22 58 -81 139 -111 152 -12 5 -22 15 -22 22 0 24 36 13 78 -23z m256 -933
c13 -21 -106 -141 -139 -141 -23 0 -18 13 14 34 15 11 43 41 61 68 32 46 52
59 64 39z"/>
<path d="M3966 2539 c-12 -9 -27 -39 -34 -67 -16 -59 -3 -101 47 -154 48 -51
54 -95 52 -383 -2 -371 -18 -788 -32 -838 -7 -23 -22 -55 -34 -72 -37 -50 -47
-96 -34 -148 20 -83 6 -80 376 -80 321 0 329 0 368 22 63 36 103 80 139 156
54 113 76 214 76 356 0 163 -34 264 -122 365 -25 29 -49 63 -53 74 -4 13 5 42
26 82 54 107 63 149 63 303 0 140 -12 207 -46 266 -25 44 -73 91 -113 112 -38
19 -58 20 -348 22 -279 1 -311 0 -331 -16z m54 -43 c0 -8 -4 -18 -10 -21 -20
-13 -11 -71 16 -96 76 -71 90 -172 75 -541 -6 -153 -11 -359 -11 -458 0 -126
-5 -204 -16 -257 -16 -80 -46 -154 -70 -174 -18 -15 -18 -37 0 -71 21 -40 -1
-48 -32 -13 -27 32 -25 68 8 114 56 80 67 188 76 757 8 511 5 542 -68 630 -33
40 -39 53 -34 78 10 49 66 93 66 52z m405 -6 c-3 -5 -10 -10 -16 -10 -5 0 -9
5 -9 10 0 6 7 10 16 10 8 0 12 -4 9 -10z m68 -146 c39 -41 58 -117 64 -245 6
-121 -6 -224 -32 -275 -19 -39 -52 -74 -70 -74 -21 0 -19 17 5 42 76 81 78
417 3 528 -12 19 -23 38 -23 42 0 17 31 7 53 -18z m-50 -51 c33 -38 47 -104
47 -233 0 -73 -5 -140 -13 -160 -29 -84 -73 -118 -108 -83 -18 17 -19 37 -20
235 -1 144 3 222 10 237 14 26 61 28 84 4z m48 -672 c33 -16 65 -73 84 -146
21 -78 20 -300 -1 -371 -19 -67 -57 -114 -91 -114 l-25 0 30 34 c48 55 56 94
56 266 0 180 -15 242 -70 301 -19 19 -31 38 -27 42 4 4 9 6 12 4 3 -1 18 -9
32 -16z m-28 -79 c46 -48 59 -103 59 -252 1 -141 -7 -178 -44 -217 -21 -23
-71 -31 -94 -15 -26 17 -35 84 -35 271 -1 161 1 195 15 216 23 34 64 33 99 -3z"/>
<path d="M12322 1632 c-32 -10 -92 -60 -92 -77 0 -21 13 -18 28 5 7 11 18 20
25 19 9 0 9 -2 0 -6 -7 -2 -13 -11 -13 -19 0 -8 -3 -14 -7 -14 -15 0 -63 -129
-63 -166 1 -17 22 -82 48 -145 6 -14 18 -34 27 -43 10 -9 15 -20 11 -23 -3 -3
-15 4 -26 17 -11 13 -23 21 -26 17 -9 -9 55 -75 89 -92 16 -8 39 -13 51 -10
12 3 30 -3 42 -13 37 -32 40 -123 4 -142 -15 -8 -17 -6 -13 11 5 18 3 19 -20
8 -61 -28 -126 15 -158 104 -7 20 -17 37 -21 37 -4 0 -8 7 -8 16 0 9 -7 14
-17 12 -15 -3 -18 -15 -19 -68 -1 -54 0 -56 3 -12 3 37 8 52 19 52 11 0 14
-16 14 -69 0 -55 5 -80 24 -115 18 -33 21 -46 11 -46 -7 0 -16 6 -18 13 -3 7
-6 5 -6 -5 -1 -21 35 -43 44 -28 3 5 11 10 17 10 7 0 6 -5 -1 -14 -16 -19 12
-28 97 -29 74 -1 121 17 160 62 42 48 72 135 72 209 0 124 -48 200 -160 257
-37 19 -70 41 -74 50 -10 28 -7 82 7 92 24 20 97 23 118 5 10 -9 19 -20 19
-24 0 -4 12 -19 26 -35 16 -17 21 -29 14 -31 -7 -3 -16 2 -21 9 -7 11 -9 11
-9 -2 0 -22 24 -41 43 -33 33 12 32 124 -1 189 -19 38 -29 45 -72 45 -20 0
-40 4 -46 10 -13 13 -93 21 -122 12z"/>
<path d="M13040 1618 c-22 -24 -26 -43 -10 -53 6 -4 10 5 10 19 0 17 6 26 16
26 11 0 14 -6 9 -22 -4 -13 -11 -27 -16 -32 -5 -6 -9 -49 -9 -97 0 -48 -4 -91
-10 -94 -5 -3 -10 -21 -10 -38 0 -18 -7 -45 -15 -61 -8 -15 -15 -41 -15 -57 0
-15 -4 -31 -10 -34 -5 -3 -10 -21 -10 -40 0 -19 -4 -37 -10 -40 -5 -3 -10 -16
-10 -28 0 -12 -7 -35 -15 -51 -8 -15 -15 -36 -15 -46 0 -10 -16 -35 -35 -54
-19 -20 -35 -43 -35 -51 0 -7 -5 -17 -10 -20 -24 -15 6 -25 75 -25 65 0 76 3
89 22 21 30 20 45 -4 75 -24 31 -26 66 -3 88 14 14 28 16 81 11 41 -4 69 -3
77 4 10 8 19 8 34 -2 29 -18 29 -87 1 -113 -14 -12 -18 -25 -14 -41 4 -15 2
-24 -5 -24 -6 0 -11 5 -11 10 0 6 -5 10 -12 10 -6 0 -3 -9 7 -20 16 -17 31
-20 115 -20 83 0 101 3 124 21 34 26 35 71 3 92 -13 8 -28 32 -35 53 -6 22
-23 80 -38 129 -14 50 -32 108 -39 130 -7 22 -23 74 -35 115 -46 153 -72 214
-113 258 -26 28 -70 29 -97 0z m82 -285 c10 -9 18 -26 18 -38 0 -11 4 -25 9
-30 13 -15 22 -108 11 -125 -7 -12 -12 -12 -22 -2 -6 6 -33 12 -59 12 -26 0
-50 4 -53 9 -7 10 17 122 29 142 10 16 39 47 44 48 3 1 13 -6 23 -16z"/>
<path d="M13090 1311 c0 -6 5 -13 10 -16 6 -3 10 1 10 9 0 9 -4 16 -10 16 -5
0 -10 -4 -10 -9z"/>
<path d="M13122 1240 c0 -14 2 -19 5 -12 2 6 2 18 0 25 -3 6 -5 1 -5 -13z"/>
<path d="M13874 1631 c-56 -11 -157 -98 -126 -109 14 -4 16 -32 2 -32 -5 0
-10 -8 -10 -19 0 -10 -7 -24 -15 -31 -8 -7 -15 -23 -15 -36 0 -13 -4 -24 -10
-24 -6 0 -10 -56 -10 -149 0 -89 4 -152 10 -156 6 -3 10 -17 10 -30 0 -13 4
-27 10 -30 5 -3 17 -22 26 -41 9 -19 30 -48 45 -65 32 -35 34 -39 17 -39 -12
1 -37 27 -72 75 -8 11 -17 17 -21 14 -3 -4 1 -14 10 -22 8 -9 15 -20 15 -24 0
-12 60 -68 89 -83 13 -7 49 -12 80 -12 47 -1 66 5 119 37 69 42 86 66 97 138
7 43 6 47 -14 47 -11 0 -21 -4 -21 -10 0 -5 -4 -10 -10 -10 -19 0 -10 21 15
32 28 12 33 28 10 28 -8 0 -19 -9 -25 -19 -12 -24 -65 -51 -97 -51 -95 0 -156
116 -157 300 -1 113 9 143 58 169 19 11 29 10 57 -4 19 -10 37 -23 41 -29 4
-6 10 -7 15 -2 4 4 0 12 -10 17 -19 11 -23 29 -6 29 22 0 69 -68 69 -100 0
-11 5 -20 10 -20 15 0 12 -48 -2 -53 -10 -3 -10 -7 1 -20 19 -24 36 -21 60 9
17 22 21 41 21 103 0 119 -29 181 -82 181 -17 0 -42 9 -57 19 -31 23 -83 32
-127 22z m-76 -81 c-32 -33 -38 -36 -38 -20 0 14 53 60 62 54 3 -2 -7 -18 -24
-34z"/>
<path d="M12204 1529 c-3 -6 -1 -16 5 -22 8 -8 11 -5 11 11 0 24 -5 28 -16 11z"/>
<path d="M13721 1504 c0 -11 3 -14 6 -6 3 7 2 16 -1 19 -3 4 -6 -2 -5 -13z"/>
<path d="M12456 1483 c6 -4 14 -15 17 -23 5 -11 6 -9 4 4 -1 11 -9 21 -17 23
-10 3 -11 2 -4 -4z"/>
<path d="M12180 1461 c0 -11 5 -23 10 -26 6 -3 10 3 10 14 0 11 -4 23 -10 26
-5 3 -10 -3 -10 -14z"/>
<path d="M13696 1471 c-4 -7 -5 -15 -2 -18 9 -9 19 4 14 18 -4 11 -6 11 -12 0z"/>
<path d="M12495 1430 c3 -5 8 -10 11 -10 2 0 4 5 4 10 0 6 -5 10 -11 10 -5 0
-7 -4 -4 -10z"/>
<path d="M13002 1400 c0 -19 2 -27 5 -17 2 9 2 25 0 35 -3 9 -5 1 -5 -18z"/>
<path d="M13670 1406 c0 -9 5 -16 10 -16 6 0 10 4 10 9 0 6 -4 13 -10 16 -5 3
-10 -1 -10 -9z"/>
<path d="M14006 1412 c-2 -4 -1 -14 5 -22 7 -12 9 -10 9 8 0 23 -5 28 -14 14z"/>
<path d="M14030 1344 c0 -8 5 -12 10 -9 6 3 10 10 10 16 0 5 -4 9 -10 9 -5 0
-10 -7 -10 -16z"/>
<path d="M13654 1225 c0 -60 1 -84 3 -52 2 32 2 81 0 110 -2 29 -3 3 -3 -58z"/>
<path d="M12180 1295 c0 -8 5 -15 10 -15 6 0 10 7 10 15 0 8 -4 15 -10 15 -5
0 -10 -7 -10 -15z"/>
<path d="M12975 1300 c-3 -5 -1 -18 4 -27 9 -16 10 -14 11 10 0 28 -5 34 -15
17z"/>
<path d="M12211 1234 c0 -11 3 -14 6 -6 3 7 2 16 -1 19 -3 4 -6 -2 -5 -13z"/>
<path d="M12950 1203 c0 -13 5 -23 10 -23 13 0 13 11 0 30 -8 12 -10 11 -10
-7z"/>
<path d="M12932 1120 c0 -14 2 -19 5 -12 2 6 2 18 0 25 -3 6 -5 1 -5 -13z"/>
<path d="M12674 1059 c-12 -13 -15 -23 -7 -27 6 -4 10 -37 10 -78 -1 -47 4
-78 12 -88 8 -9 11 -20 7 -23 -4 -4 -11 -1 -16 7 -5 8 -12 11 -16 7 -14 -13
19 -37 52 -37 39 0 61 26 75 90 24 106 -59 213 -117 149z m26 -14 c0 -8 -4
-15 -10 -15 -5 0 -10 7 -10 15 0 8 5 15 10 15 6 0 10 -7 10 -15z"/>
<path d="M13500 1071 c0 -6 5 -13 10 -16 7 -4 8 -11 1 -18 -12 -15 -26 -85
-22 -112 1 -11 9 -32 16 -47 14 -30 9 -44 -12 -27 -8 7 -13 8 -13 1 0 -18 29
-33 57 -30 79 9 100 172 31 241 -18 18 -68 24 -68 8z"/>
<path d="M14220 1071 c0 -6 5 -13 10 -16 7 -4 7 -11 2 -18 -12 -15 -26 -86
-23 -112 2 -11 9 -32 16 -47 14 -30 9 -44 -12 -27 -16 14 -17 -3 -1 -19 18
-18 63 -15 79 6 54 67 53 169 -3 225 -18 18 -68 24 -68 8z"/>
<path d="M13670 1049 c0 -11 5 -17 10 -14 6 3 10 13 10 21 0 8 -4 14 -10 14
-5 0 -10 -9 -10 -21z"/>
<path d="M13480 1045 c0 -8 5 -15 10 -15 6 0 10 7 10 15 0 8 -4 15 -10 15 -5
0 -10 -7 -10 -15z"/>
<path d="M14200 1045 c0 -8 5 -15 10 -15 6 0 10 7 10 15 0 8 -4 15 -10 15 -5
0 -10 -7 -10 -15z"/>
<path d="M12900 1036 c0 -8 5 -18 10 -21 6 -3 10 1 10 9 0 8 -4 18 -10 21 -5
3 -10 -1 -10 -9z"/>
<path d="M12642 985 c0 -16 2 -22 5 -12 2 9 2 23 0 30 -3 6 -5 -1 -5 -18z"/>
<path d="M13160 1000 c0 -5 5 -10 10 -10 6 0 10 5 10 10 0 6 -4 10 -10 10 -5
0 -10 -4 -10 -10z"/>
<path d="M13461 994 c0 -11 3 -14 6 -6 3 7 2 16 -1 19 -3 4 -6 -2 -5 -13z"/>
<path d="M13694 999 c-3 -6 -1 -16 5 -22 8 -8 11 -5 11 11 0 24 -5 28 -16 11z"/>
<path d="M14182 990 c0 -14 2 -19 5 -12 2 6 2 18 0 25 -3 6 -5 1 -5 -13z"/>
<path d="M12881 964 c0 -11 3 -14 6 -6 3 7 2 16 -1 19 -3 4 -6 -2 -5 -13z"/>
<path d="M12842 928 c-12 -12 -17 -38 -6 -38 10 0 34 28 34 39 0 14 -13 14
-28 -1z"/>
<path d="M13152 919 c-7 -12 -11 -24 -8 -27 6 -6 35 27 36 41 0 14 -15 7 -28
-14z"/>
<path d="M12642 905 c0 -16 2 -22 5 -12 2 9 2 23 0 30 -3 6 -5 -1 -5 -18z"/>
<path d="M13462 900 c0 -14 2 -19 5 -12 2 6 2 18 0 25 -3 6 -5 1 -5 -13z"/>
<path d="M14182 900 c0 -14 2 -19 5 -12 2 6 2 18 0 25 -3 6 -5 1 -5 -13z"/>
<path d="M8305 624 c-206 -27 -265 -45 -315 -97 -22 -22 -40 -46 -40 -54 0
-31 148 -4 179 34 35 44 320 69 379 32 36 -23 24 -62 -28 -86 -25 -11 -25 -12
-2 -12 29 -1 95 43 112 74 18 33 1 69 -42 91 -32 17 -174 27 -243 18z"/>
<path d="M10713 600 c-64 -37 -92 -75 -100 -137 -6 -48 -6 -48 -74 -82 -85
-42 -109 -68 -116 -119 -7 -55 23 -104 77 -126 22 -9 49 -16 60 -16 24 0 91
24 143 52 l38 20 23 -21 c32 -30 68 -27 95 9 24 33 21 51 -8 43 -37 -10 -33
27 9 73 29 31 40 52 40 74 l0 31 -65 -47 c-53 -37 -68 -44 -80 -34 -17 14 -45
68 -45 86 0 8 35 32 79 53 84 43 131 88 131 126 0 33 -27 45 -97 45 -46 0 -69
-6 -110 -30z m147 -6 c0 -17 -39 -58 -81 -84 -52 -32 -89 -39 -89 -16 0 49
113 136 151 115 11 -5 19 -12 19 -15z m-201 -271 c27 -43 28 -49 15 -64 -8 -9
-25 -19 -37 -22 -12 -3 -41 -10 -65 -16 -49 -13 -82 -2 -82 27 0 25 105 122
132 122 4 0 21 -21 37 -47z"/>
<path d="M2885 608 c-64 -10 -126 -25 -162 -39 -30 -11 -86 -90 -74 -102 7 -7
15 -7 23 0 12 9 66 23 200 53 59 13 98 13 98 0 0 -5 -33 -47 -74 -93 -67 -75
-79 -84 -135 -101 -74 -22 -96 -50 -62 -77 28 -23 27 -31 -14 -88 -43 -60 -57
-111 -29 -111 19 1 84 77 84 99 0 7 9 25 20 41 19 27 23 28 132 32 178 7 304
60 368 156 48 73 34 168 -31 203 -67 35 -213 47 -344 27z m289 -90 c72 -21 86
-65 36 -121 -34 -39 -112 -80 -183 -96 -67 -15 -177 -14 -177 2 0 19 13 34 38
41 12 4 20 12 16 17 -3 6 15 36 41 67 26 31 51 67 56 80 8 19 15 22 70 22 34
0 80 -5 103 -12z"/>
<path d="M11635 576 c-5 -2 -37 -9 -70 -16 -138 -28 -198 -69 -210 -142 -6
-32 -3 -44 11 -58 23 -20 102 -45 199 -61 78 -13 155 -45 155 -64 0 -37 -90
-62 -256 -71 -113 -6 -135 -4 -168 11 l-37 18 -30 -28 c-37 -36 -37 -51 1 -70
22 -11 63 -15 167 -15 207 0 338 34 376 99 21 36 21 50 -1 76 -37 45 -124 77
-292 109 -66 13 -74 55 -16 80 67 28 108 37 206 43 89 5 102 4 114 -12 12 -17
15 -17 58 -1 57 22 80 58 55 84 -14 14 -39 17 -135 19 -64 1 -121 1 -127 -1z"/>
<path d="M5293 538 c-16 -18 -51 -63 -77 -100 l-47 -66 -52 4 c-46 5 -61 1
-127 -33 -52 -26 -84 -51 -105 -79 -45 -62 -154 -114 -209 -100 -29 7 -43 41
-26 61 7 8 9 22 6 31 -12 32 107 124 130 101 3 -3 3 -14 0 -24 -5 -17 -30 -36
-88 -69 -11 -7 -16 -14 -11 -17 10 -6 120 47 146 70 23 21 22 60 -2 72 -48 26
-204 -52 -254 -127 -29 -44 -107 -90 -168 -98 -37 -5 -47 -3 -64 16 -16 17
-17 24 -7 40 7 11 12 30 12 43 0 46 114 121 134 88 8 -12 -69 -85 -97 -91 -12
-3 -17 -9 -12 -12 15 -9 126 48 153 78 29 33 28 50 -5 62 -71 24 -186 -38
-270 -146 -19 -24 -73 -35 -80 -16 -2 6 7 25 21 41 37 44 48 79 31 93 -11 9
-24 2 -65 -36 -27 -25 -50 -55 -50 -65 0 -26 -88 -90 -120 -87 -36 4 -39 42
-5 71 54 45 95 89 95 103 0 20 -22 27 -52 15 -26 -10 -108 -88 -108 -103 0
-16 -40 -48 -60 -48 -24 0 -25 17 -5 56 20 38 19 53 -6 93 -19 32 -22 33 -65
27 -24 -3 -61 -14 -82 -25 -38 -20 -122 -102 -122 -121 0 -15 -76 -50 -110
-50 -46 0 -39 32 21 95 71 75 66 90 -29 89 -55 -1 -72 1 -72 12 0 20 -17 17
-51 -7 -34 -24 -64 -75 -49 -84 15 -9 12 -31 -6 -50 -9 -9 -14 -19 -10 -22 3
-3 22 11 42 31 20 21 47 42 61 47 26 10 73 12 73 4 0 -3 -16 -25 -35 -51 -45
-59 -53 -89 -30 -114 26 -29 50 -25 117 20 33 22 64 40 67 40 4 0 14 -11 21
-25 32 -60 106 -70 170 -25 30 21 82 40 125 43 12 1 24 -8 32 -24 30 -62 77
-67 150 -16 39 28 60 35 115 40 66 6 66 6 76 -23 27 -75 121 -79 229 -9 53 35
66 40 74 28 5 -8 9 -19 9 -26 0 -6 12 -21 28 -33 43 -34 119 -23 195 29 66 46
75 48 84 24 9 -26 44 -63 59 -63 7 0 43 23 79 50 36 28 70 50 75 50 5 0 10
-23 12 -51 5 -88 33 -89 147 -6 50 37 54 38 64 21 21 -38 56 -64 86 -64 32 0
101 28 101 41 0 4 23 12 50 18 50 11 152 77 164 106 4 13 92 33 101 23 3 -2
-13 -28 -35 -57 -43 -57 -50 -90 -24 -115 23 -24 44 -20 108 19 32 19 64 35
71 35 7 0 18 -14 24 -30 11 -33 43 -50 95 -50 38 0 151 54 160 75 8 22 44 18
51 -5 9 -29 67 -60 113 -60 60 0 209 76 189 96 -4 4 -15 1 -24 -7 -41 -34
-115 -51 -128 -29 -3 5 -15 10 -26 10 -11 0 -27 6 -34 13 -8 6 -21 18 -30 25
-23 19 -19 26 35 63 27 19 50 37 50 42 0 4 6 7 14 7 17 0 30 -62 20 -93 -4
-12 -14 -27 -23 -34 -30 -22 -2 -25 33 -3 46 28 76 71 76 107 0 37 -25 106
-40 111 -7 3 -31 -15 -54 -39 -41 -44 -60 -61 -146 -130 -98 -78 -193 -114
-240 -89 -20 11 -21 17 -15 58 9 64 18 77 69 107 82 48 105 20 32 -39 -23 -20
-52 -36 -62 -36 -16 0 -16 -2 -4 -10 10 -6 22 -4 37 5 12 8 28 15 36 15 22 0
97 70 97 91 0 47 -100 39 -185 -16 -49 -31 -105 -87 -105 -106 0 -14 -77 -49
-110 -49 -48 0 -40 36 20 95 33 33 50 57 48 70 -3 18 -10 20 -75 19 -56 -1
-73 1 -73 12 0 24 -29 15 -70 -22 -39 -35 -51 -69 -29 -76 21 -7 -1 -46 -35
-62 -61 -29 -67 -21 -40 50 14 38 14 43 -4 75 -18 31 -23 34 -64 33 -25 -1
-64 -12 -88 -24 -45 -23 -120 -95 -120 -116 0 -19 -90 -74 -121 -74 -32 0 -44
23 -33 67 10 38 44 91 125 194 37 48 68 93 69 100 7 49 -14 51 -57 7z m-1520
-253 c-14 -25 -22 -52 -19 -60 9 -25 -5 -44 -40 -54 -65 -18 -90 10 -65 73 8
21 129 98 142 91 4 -3 -4 -26 -18 -50z m1354 11 c-18 -27 -155 -116 -179 -116
-25 0 -28 25 -9 57 13 20 39 37 87 57 38 15 76 31 84 36 24 13 34 -7 17 -34z
m393 34 c0 -6 -9 -29 -20 -51 -12 -22 -18 -48 -15 -58 8 -26 -27 -53 -70 -54
-85 -2 -62 85 37 141 60 34 68 36 68 22z"/>
<path d="M7304 537 c-16 -18 -50 -63 -75 -99 l-47 -65 -53 4 c-47 4 -64 -1
-129 -34 -87 -44 -125 -90 -116 -138 7 -36 37 -79 58 -83 9 -2 46 20 82 47 37
28 71 51 77 51 5 0 9 -23 9 -50 0 -43 3 -52 24 -61 27 -13 74 8 140 60 40 32
56 32 56 1 0 -10 12 -28 28 -40 42 -34 119 -23 191 27 67 46 79 72 18 38 -24
-14 -64 -28 -88 -31 -37 -5 -47 -3 -64 16 -16 17 -17 24 -7 40 7 11 12 30 12
43 0 33 76 97 115 97 40 0 -10 -71 -68 -95 -16 -7 -26 -15 -21 -18 10 -6 120
46 146 69 20 19 28 48 18 64 -10 17 -80 15 -124 -4 -55 -23 -124 -76 -147
-112 -23 -38 -103 -94 -134 -94 -24 0 -45 17 -45 37 0 32 56 127 130 218 79
99 94 136 59 143 -9 2 -29 -12 -45 -31z m-154 -220 c0 -18 -33 -47 -109 -96
-70 -45 -88 -49 -98 -25 -11 28 20 65 77 91 93 43 130 52 130 30z"/>
<path d="M8270 487 c-14 -6 -44 -26 -66 -44 -53 -41 -76 -50 -146 -58 -32 -4
-58 -11 -58 -16 0 -6 16 -17 36 -25 l36 -15 -51 -54 c-82 -87 -67 -140 45
-164 50 -11 72 -10 140 3 77 14 101 22 169 52 72 33 98 76 67 114 -23 29 -121
60 -190 60 -50 0 -53 2 -50 23 3 19 10 23 65 27 71 6 96 20 35 20 -52 0 -54
16 -7 50 19 14 35 28 35 33 0 10 -31 8 -60 -6z m-17 -168 c137 -21 163 -56 76
-104 -44 -24 -63 -28 -140 -29 -78 -1 -91 2 -110 20 -25 26 -18 45 36 93 40
35 40 35 138 20z"/>
<path d="M8709 469 c-11 -11 -18 -26 -16 -32 6 -21 52 -19 71 2 39 43 -14 71
-55 30z"/>
<path d="M13038 479 c-10 -5 -18 -21 -18 -34 0 -19 5 -25 23 -25 32 0 71 42
55 58 -15 15 -37 15 -60 1z"/>
<path d="M13588 479 c-10 -5 -18 -21 -18 -34 0 -19 5 -25 23 -25 32 0 71 42
55 58 -15 15 -37 15 -60 1z"/>
<path d="M8365 420 c-4 -6 8 -10 29 -10 19 0 38 5 41 10 4 6 -8 10 -29 10 -19
0 -38 -4 -41 -10z"/>
<path d="M9950 403 c-12 -15 -56 -56 -98 -91 -43 -34 -86 -71 -97 -80 -29 -26
-114 -64 -156 -69 -28 -4 -42 0 -58 16 -12 12 -19 27 -14 34 4 6 9 27 13 47 4
28 15 41 54 68 49 32 86 41 86 20 0 -17 -79 -86 -104 -90 -11 -2 -16 -6 -11
-10 14 -9 114 38 148 70 53 51 22 87 -61 69 -75 -16 -148 -64 -188 -124 -20
-29 -44 -49 -76 -63 -56 -24 -64 -25 -72 -4 -7 17 26 65 74 107 16 15 30 31
30 36 0 20 -13 41 -26 41 -15 0 -105 -48 -132 -71 -102 -85 -123 -100 -132
-94 -17 11 -12 21 40 71 55 53 62 74 27 74 -28 0 -98 -57 -127 -104 -40 -65
-186 -118 -223 -81 -19 18 -22 41 -8 49 5 3 7 15 4 27 -6 23 34 71 81 94 39
20 56 19 56 -3 0 -18 -77 -82 -99 -82 -6 0 -11 -4 -11 -10 0 -12 71 15 120 45
43 27 69 70 52 87 -15 15 -84 12 -129 -7 -50 -21 -143 -92 -143 -109 0 -21
-53 -62 -104 -81 -43 -16 -47 -16 -71 -1 -14 9 -25 23 -25 31 0 7 27 37 60 66
94 82 75 138 -24 70 -53 -37 -96 -98 -96 -137 0 -16 9 -44 20 -62 16 -26 26
-32 55 -32 38 0 103 28 124 54 20 24 41 19 52 -13 23 -65 126 -67 219 -3 30
20 58 38 61 40 4 2 16 -13 27 -33 12 -19 25 -35 31 -35 5 0 46 34 92 75 99 90
160 105 82 20 -31 -34 -45 -75 -32 -91 20 -25 64 -15 123 26 31 22 60 40 64
40 4 0 16 -17 27 -37 11 -21 32 -42 46 -47 43 -15 114 2 166 40 68 49 73 50
92 25 28 -37 74 -61 116 -61 39 0 134 40 179 75 33 25 13 25 -39 0 -52 -26
-90 -31 -100 -16 -3 5 4 12 15 16 11 3 20 10 20 15 0 4 9 10 19 13 30 7 63 66
57 102 -16 105 -37 127 -76 78z m-6 -85 c3 -13 6 -33 6 -45 0 -27 -46 -83 -68
-83 -22 1 -75 45 -71 58 4 11 109 91 120 92 4 0 9 -10 13 -22z"/>
<path d="M14129 383 c-77 -82 -196 -173 -224 -173 -29 0 -31 7 -10 46 18 35
19 67 3 97 -20 34 -30 38 -77 32 -74 -11 -166 -75 -191 -134 -18 -45 -115 -87
-155 -69 -39 18 -32 50 20 93 58 47 82 82 67 97 -26 26 -125 -41 -173 -119
-25 -40 -103 -82 -170 -90 -60 -7 -89 8 -89 47 0 25 8 35 48 60 51 32 78 37
85 18 6 -17 53 17 75 55 16 27 16 29 -2 43 -21 15 -37 13 -102 -17 -53 -24
-142 -94 -155 -123 -19 -40 -116 -81 -153 -64 -44 19 -39 36 29 102 65 62 75
79 54 91 -31 20 -114 -40 -170 -122 -21 -30 -37 -43 -54 -43 -38 0 -38 16 0
71 36 53 42 73 24 84 -23 15 -129 -92 -129 -131 0 -13 -87 -64 -110 -64 -10 0
-22 5 -25 11 -7 11 13 69 24 69 12 0 91 83 91 95 0 18 -26 26 -53 16 -23 -9
-117 -106 -117 -121 0 -17 -74 -51 -104 -48 -27 3 -31 7 -28 28 1 14 25 47 52
75 45 46 49 53 37 70 -12 16 -23 17 -81 12 -54 -5 -66 -4 -66 8 0 25 -27 17
-65 -20 -33 -31 -37 -38 -31 -69 5 -25 2 -39 -10 -50 -9 -10 -14 -19 -11 -22
3 -4 24 11 47 32 47 44 63 52 103 53 34 1 34 -6 -3 -49 -46 -54 -56 -85 -36
-115 23 -35 53 -31 122 16 53 38 59 40 69 24 45 -78 87 -87 163 -32 39 28 59
35 115 40 l68 6 14 -33 c25 -60 90 -64 159 -11 56 43 70 44 86 6 6 -16 27 -37
45 -47 30 -16 38 -16 75 -4 23 8 67 31 97 52 53 37 56 38 74 22 11 -9 19 -23
19 -30 0 -19 33 -34 74 -34 24 0 48 10 80 35 26 19 51 35 57 35 6 0 25 -16 43
-35 42 -44 84 -47 139 -9 21 14 64 32 95 40 56 15 57 15 76 -8 53 -66 123 -75
214 -28 31 16 66 36 76 45 34 26 11 26 -38 0 -49 -26 -90 -32 -101 -15 -3 6
-15 10 -26 10 -23 0 -79 39 -79 55 0 16 118 97 130 90 6 -3 10 -26 10 -50 0
-33 -6 -50 -22 -65 -31 -29 -15 -36 26 -10 44 26 76 70 76 102 0 39 -26 113
-41 116 -8 1 -34 -19 -60 -45z m-310 -98 c-11 -25 -18 -54 -14 -64 11 -37 -73
-75 -109 -48 -23 17 -15 65 17 95 27 26 109 71 119 65 4 -2 -2 -24 -13 -48z"/>
<path d="M12085 388 c-93 -19 -179 -84 -204 -155 -11 -28 -10 -39 6 -70 34
-69 121 -69 223 -2 73 50 78 67 9 32 -73 -36 -121 -41 -148 -14 -12 12 -19 27
-15 33 4 6 9 25 10 41 5 38 23 58 79 88 31 17 48 20 55 13 16 -16 -21 -57 -72
-83 -29 -14 -36 -21 -22 -21 30 0 115 44 142 73 44 47 12 81 -63 65z"/>
</g>
</svg>
