<svg version="1.0" xmlns="http://www.w3.org/2000/svg"
 width="100.000000pt" height="100.000000pt" viewBox="0 0 100.000000 100.000000"
 preserveAspectRatio="xMidYMid meet">
    <g transform="translate(0.000000,100.000000) scale(0.100000,-0.100000)"
       fill="#1C4A2C" stroke="none">
        <path d="M487 873 c-4 -3 -7 -83 -7 -177 l0 -171 -90 -90 -90 -89 -50 49 -50
        50 -102 -103 c-81 -81 -100 -104 -90 -114 10 -10 31 6 102 77 l90 90 37 -38
        38 -37 -138 -138 c-94 -94 -137 -144 -137 -160 l0 -22 500 0 500 0 0 22 c0 16
        -43 66 -137 160 l-138 138 38 37 37 38 90 -90 c71 -71 92 -87 102 -77 10 10
        -9 33 -90 114 l-102 103 -50 -50 -50 -49 -90 89 -90 90 0 85 0 85 88 35 c48
        19 87 41 87 48 0 7 -43 33 -95 57 -103 48 -104 48 -113 38z m127 -492 l109
        -109 -30 -16 c-29 -15 -32 -14 -72 15 l-41 31 -35 -26 c-42 -32 -48 -32 -90 0
        l-35 26 -41 -31 c-40 -29 -43 -30 -72 -15 l-30 16 109 109 c60 60 111 109 114
        109 3 0 54 -49 114 -109z"/>
    </g>
</svg>
