<svg version="1.0" xmlns="http://www.w3.org/2000/svg"
 width="100.000000pt" height="100.000000pt" viewBox="0 0 100.000000 100.000000"
 preserveAspectRatio="xMidYMid meet">

    <g transform="translate(0.000000,100.000000) scale(0.100000,-0.100000)"
       fill="#1C4A2C" stroke="none">
        <path d="M415 750 c-119 -25 -258 -105 -350 -200 l-50 -52 71 -66 c82 -77 156
        -124 252 -160 95 -36 229 -36 324 0 97 36 170 83 252 161 l71 67 -71 68 c-82
        77 -156 124 -250 158 -73 27 -187 38 -249 24z m189 -43 c44 -11 53 -19 73 -57
        70 -131 -27 -290 -177 -290 -150 0 -245 156 -177 290 19 39 28 47 67 57 60 15
        154 15 214 0z m-335 -92 c-21 -75 8 -171 68 -226 49 -47 93 -63 163 -63 96 0
        168 44 213 129 22 42 29 127 14 178 l-8 29 41 -23 c51 -29 170 -126 170 -139
        0 -19 -146 -130 -215 -164 -89 -45 -161 -60 -250 -53 -116 9 -235 67 -350 171
        l-50 46 45 41 c44 42 160 122 166 116 2 -2 -1 -21 -7 -42z"/>

        <path d="M465 651 c-64 -27 -81 -110 -32 -158 60 -61 162 -19 162 67 0 66 -72
        116 -130 91z"/>
    </g>
</svg>
